<mxfile host="Electron" agent="Mozilla/5.0 (Windows NT 10.0; Win64; x64) AppleWebKit/537.36 (KHTML, like Gecko) draw.io/25.0.2 Chrome/128.0.6613.186 Electron/32.2.5 Safari/537.36" version="25.0.2">
  <diagram name="PÃ¡gina-1" id="U3k0QHNDrNqYpb96N1Zb">
    <mxGraphModel dx="1434" dy="836" grid="1" gridSize="10" guides="1" tooltips="1" connect="1" arrows="1" fold="1" page="1" pageScale="1" pageWidth="827" pageHeight="1169" math="0" shadow="0">
      <root>
        <mxCell id="0" />
        <mxCell id="1" parent="0" />
        <mxCell id="2uzys4ehJ_0eV0x3jUp4-1" value="&lt;div&gt;Federate Members Mangement&lt;/div&gt;&lt;div&gt;&lt;br&gt;&lt;/div&gt;&lt;div&gt;&lt;br&gt;&lt;/div&gt;&lt;div&gt;&lt;br&gt;&lt;/div&gt;&lt;div&gt;&lt;br&gt;&lt;/div&gt;&lt;div&gt;&lt;br&gt;&lt;/div&gt;&lt;div&gt;&lt;br&gt;&lt;/div&gt;&lt;div&gt;&lt;br&gt;&lt;/div&gt;&lt;div&gt;&lt;br&gt;&lt;/div&gt;&lt;div&gt;&lt;br&gt;&lt;/div&gt;&lt;div&gt;&lt;br&gt;&lt;/div&gt;&lt;div&gt;&lt;br&gt;&lt;/div&gt;&lt;div&gt;&lt;br&gt;&lt;/div&gt;&lt;div&gt;&lt;br&gt;&lt;/div&gt;&lt;div&gt;&lt;br&gt;&lt;/div&gt;&lt;div&gt;&lt;br&gt;&lt;/div&gt;&lt;div&gt;&lt;br&gt;&lt;/div&gt;&lt;div&gt;&lt;br&gt;&lt;/div&gt;&lt;div&gt;&lt;br&gt;&lt;/div&gt;&lt;div&gt;&lt;br&gt;&lt;/div&gt;&lt;div&gt;&lt;br&gt;&lt;/div&gt;&lt;div&gt;&lt;br&gt;&lt;/div&gt;&lt;div&gt;&lt;br&gt;&lt;/div&gt;&lt;div&gt;&lt;br&gt;&lt;/div&gt;&lt;div&gt;&lt;br&gt;&lt;/div&gt;&lt;div&gt;&lt;br&gt;&lt;/div&gt;&lt;div&gt;&lt;br&gt;&lt;/div&gt;&lt;div&gt;&lt;br&gt;&lt;/div&gt;&lt;div&gt;&lt;br&gt;&lt;/div&gt;&lt;div&gt;&lt;br&gt;&lt;/div&gt;&lt;div&gt;&lt;br&gt;&lt;/div&gt;&lt;div&gt;&lt;br&gt;&lt;/div&gt;&lt;div&gt;&lt;br&gt;&lt;/div&gt;&lt;div&gt;&lt;br&gt;&lt;/div&gt;&lt;div&gt;&lt;br&gt;&lt;/div&gt;&lt;div&gt;&lt;br&gt;&lt;/div&gt;&lt;div&gt;&lt;br&gt;&lt;/div&gt;&lt;div&gt;&lt;br&gt;&lt;/div&gt;&lt;div&gt;&lt;br&gt;&lt;/div&gt;&lt;div&gt;&lt;br&gt;&lt;/div&gt;&lt;div&gt;&lt;br&gt;&lt;/div&gt;&lt;div&gt;&lt;br&gt;&lt;/div&gt;&lt;div&gt;&lt;br&gt;&lt;/div&gt;&lt;div&gt;&lt;br&gt;&lt;/div&gt;&lt;div&gt;&lt;br&gt;&lt;/div&gt;&lt;div&gt;&lt;br&gt;&lt;/div&gt;&lt;div&gt;&lt;br&gt;&lt;/div&gt;&lt;div&gt;&lt;br&gt;&lt;/div&gt;&lt;div&gt;&lt;br&gt;&lt;/div&gt;&lt;div&gt;&lt;br&gt;&lt;/div&gt;&lt;div&gt;&lt;br&gt;&lt;/div&gt;&lt;div&gt;&lt;br&gt;&lt;/div&gt;&lt;div&gt;&lt;br&gt;&lt;/div&gt;&lt;div&gt;&lt;br&gt;&lt;/div&gt;" style="rounded=1;whiteSpace=wrap;html=1;" parent="1" vertex="1">
          <mxGeometry x="260" y="20" width="460" height="810" as="geometry" />
        </mxCell>
        <mxCell id="2uzys4ehJ_0eV0x3jUp4-2" value="President" style="shape=umlActor;verticalLabelPosition=bottom;verticalAlign=top;html=1;outlineConnect=0;" parent="1" vertex="1">
          <mxGeometry x="100" y="330" width="70" height="110" as="geometry" />
        </mxCell>
        <mxCell id="2uzys4ehJ_0eV0x3jUp4-5" value="Member" style="shape=umlActor;verticalLabelPosition=bottom;verticalAlign=top;html=1;outlineConnect=0;" parent="1" vertex="1">
          <mxGeometry x="100" y="680" width="70" height="110" as="geometry" />
        </mxCell>
        <mxCell id="2uzys4ehJ_0eV0x3jUp4-7" value="MarkPaymentAsCancelled" style="ellipse;whiteSpace=wrap;html=1;" parent="1" vertex="1">
          <mxGeometry x="360" y="230" width="170" height="50" as="geometry" />
        </mxCell>
        <mxCell id="2uzys4ehJ_0eV0x3jUp4-9" value="Secretary" style="shape=umlActor;verticalLabelPosition=bottom;verticalAlign=top;html=1;outlineConnect=0;" parent="1" vertex="1">
          <mxGeometry x="100" y="510" width="70" height="110" as="geometry" />
        </mxCell>
        <mxCell id="2uzys4ehJ_0eV0x3jUp4-21" value="" style="endArrow=none;html=1;rounded=0;dashed=1;startArrow=open;startFill=0;" parent="1" source="2uzys4ehJ_0eV0x3jUp4-7" target="2uzys4ehJ_0eV0x3jUp4-34" edge="1">
          <mxGeometry width="50" height="50" relative="1" as="geometry">
            <mxPoint x="560" y="420" as="sourcePoint" />
            <mxPoint x="610" y="370" as="targetPoint" />
          </mxGeometry>
        </mxCell>
        <mxCell id="2uzys4ehJ_0eV0x3jUp4-23" value="&amp;lt;&amp;lt;extend&amp;gt;&amp;gt;" style="edgeLabel;html=1;align=center;verticalAlign=middle;resizable=0;points=[];" parent="2uzys4ehJ_0eV0x3jUp4-21" vertex="1" connectable="0">
          <mxGeometry x="-0.005" y="-2" relative="1" as="geometry">
            <mxPoint x="-17" y="-15" as="offset" />
          </mxGeometry>
        </mxCell>
        <mxCell id="2uzys4ehJ_0eV0x3jUp4-22" value="" style="endArrow=none;html=1;rounded=0;dashed=1;startArrow=open;startFill=0;" parent="1" source="2uzys4ehJ_0eV0x3jUp4-25" target="2uzys4ehJ_0eV0x3jUp4-39" edge="1">
          <mxGeometry width="50" height="50" relative="1" as="geometry">
            <mxPoint x="544" y="341" as="sourcePoint" />
            <mxPoint x="451.7449470292372" y="375.2480227505712" as="targetPoint" />
          </mxGeometry>
        </mxCell>
        <mxCell id="2uzys4ehJ_0eV0x3jUp4-24" value="&amp;lt;&amp;lt;extend&amp;gt;&amp;gt;" style="edgeLabel;html=1;align=center;verticalAlign=middle;resizable=0;points=[];" parent="2uzys4ehJ_0eV0x3jUp4-22" vertex="1" connectable="0">
          <mxGeometry x="0.1467" y="1" relative="1" as="geometry">
            <mxPoint x="5" y="-12" as="offset" />
          </mxGeometry>
        </mxCell>
        <mxCell id="2uzys4ehJ_0eV0x3jUp4-25" value="NotifyEmail" style="ellipse;whiteSpace=wrap;html=1;" parent="1" vertex="1">
          <mxGeometry x="590" y="170" width="120" height="50" as="geometry" />
        </mxCell>
        <mxCell id="2uzys4ehJ_0eV0x3jUp4-32" value="" style="endArrow=block;html=1;rounded=0;endFill=0;" parent="1" source="2uzys4ehJ_0eV0x3jUp4-5" target="2uzys4ehJ_0eV0x3jUp4-9" edge="1">
          <mxGeometry width="50" height="50" relative="1" as="geometry">
            <mxPoint x="560" y="420" as="sourcePoint" />
            <mxPoint x="140" y="600" as="targetPoint" />
          </mxGeometry>
        </mxCell>
        <mxCell id="2uzys4ehJ_0eV0x3jUp4-33" value="" style="endArrow=block;html=1;rounded=0;endFill=0;" parent="1" source="2uzys4ehJ_0eV0x3jUp4-9" target="2uzys4ehJ_0eV0x3jUp4-2" edge="1">
          <mxGeometry width="50" height="50" relative="1" as="geometry">
            <mxPoint x="140" y="310" as="sourcePoint" />
            <mxPoint x="140" y="240" as="targetPoint" />
          </mxGeometry>
        </mxCell>
        <mxCell id="2uzys4ehJ_0eV0x3jUp4-34" value="Treasurer" style="shape=umlActor;verticalLabelPosition=bottom;verticalAlign=top;html=1;outlineConnect=0;" parent="1" vertex="1">
          <mxGeometry x="100" y="150" width="70" height="110" as="geometry" />
        </mxCell>
        <mxCell id="2uzys4ehJ_0eV0x3jUp4-36" value="SeeOwnPaymenrts" style="ellipse;whiteSpace=wrap;html=1;" parent="1" vertex="1">
          <mxGeometry x="330" y="695" width="120" height="80" as="geometry" />
        </mxCell>
        <mxCell id="2uzys4ehJ_0eV0x3jUp4-37" value="" style="endArrow=none;html=1;rounded=0;" parent="1" source="2uzys4ehJ_0eV0x3jUp4-5" target="2uzys4ehJ_0eV0x3jUp4-36" edge="1">
          <mxGeometry width="50" height="50" relative="1" as="geometry">
            <mxPoint x="180" y="734" as="sourcePoint" />
            <mxPoint x="396" y="667" as="targetPoint" />
          </mxGeometry>
        </mxCell>
        <mxCell id="2uzys4ehJ_0eV0x3jUp4-38" value="AddPaymentToUser" style="ellipse;whiteSpace=wrap;html=1;" parent="1" vertex="1">
          <mxGeometry x="360" y="90" width="150" height="50" as="geometry" />
        </mxCell>
        <mxCell id="2uzys4ehJ_0eV0x3jUp4-39" value="MarkPaymentAsPaid" style="ellipse;whiteSpace=wrap;html=1;" parent="1" vertex="1">
          <mxGeometry x="360" y="160" width="170" height="50" as="geometry" />
        </mxCell>
        <mxCell id="2uzys4ehJ_0eV0x3jUp4-42" value="" style="endArrow=none;html=1;rounded=0;" parent="1" source="2uzys4ehJ_0eV0x3jUp4-34" target="2uzys4ehJ_0eV0x3jUp4-39" edge="1">
          <mxGeometry width="50" height="50" relative="1" as="geometry">
            <mxPoint x="200" y="320" as="sourcePoint" />
            <mxPoint x="610" y="370" as="targetPoint" />
          </mxGeometry>
        </mxCell>
        <mxCell id="2uzys4ehJ_0eV0x3jUp4-43" value="" style="endArrow=none;html=1;rounded=0;" parent="1" source="2uzys4ehJ_0eV0x3jUp4-34" target="2uzys4ehJ_0eV0x3jUp4-38" edge="1">
          <mxGeometry width="50" height="50" relative="1" as="geometry">
            <mxPoint x="200" y="280" as="sourcePoint" />
            <mxPoint x="388" y="264" as="targetPoint" />
          </mxGeometry>
        </mxCell>
        <mxCell id="A0fx3oZmV-bSW2O6VXHu-2" value="" style="endArrow=block;html=1;rounded=0;endFill=0;" edge="1" parent="1" source="2uzys4ehJ_0eV0x3jUp4-2" target="2uzys4ehJ_0eV0x3jUp4-34">
          <mxGeometry width="50" height="50" relative="1" as="geometry">
            <mxPoint x="145" y="520" as="sourcePoint" />
            <mxPoint x="145" y="450" as="targetPoint" />
          </mxGeometry>
        </mxCell>
      </root>
    </mxGraphModel>
  </diagram>
</mxfile>
